<svg transform="scale(1)" id="_0791_Designer_1" xmlns="http://www.w3.org/2000/svg" viewBox="0 0 500 500" class="show_show__wrapper__graphic__5Waiy "><title>React</title><defs><style>.cls-1{fill:#d6b2a4;}.cls-2{fill:#fff;}.cls-3{fill:#3c4368;}.cls-4{fill:#ffde91;}.cls-5{fill:#af93a2;}.cls-6{fill:#292e54;}.cls-7{fill:#e6e7e8;}.cls-8{fill:#bcbec0;}</style></defs><g><path class="cls-5" d="M29.45,454.81c-2.39,.85-5.02,2.07-5.81,4.48-.76,2.33,.62,4.92,2.62,6.33s4.48,1.92,6.88,2.38c18.06,3.52,37.66,6.86,54.15-1.31,3.46-1.71,6.92-4.22,7.96-7.94,5.21-18.62-57.67-6.86-65.8-3.96Z"></path><path class="cls-5" d="M129.25,450c-5.63,1.44-12.3,4.8-12.02,10.61,.29,6.03,7.71,8.61,13.68,9.48,27.95,4.09,56.29,4.68,84.53,5.26,36.06,.74,73.93,1.08,105.8-15.81,34.5,5.5,69.52,7.73,104.45,6.66,17.2-.53,34.89-1.99,50.29-9.67,4.41-2.2,8.7-5.01,11.44-9.11,2.73-4.1,3.6-9.74,1.1-13.99-3.1-5.26-9.91-6.74-15.95-7.58-36.31-5.06-73.28-5.33-109.65-.79-15,1.87-30.85,5.02-41.76,15.47-1.67,1.6-17.16-1.33-19.92-1.5-6.91-.42-13.83-.72-20.75-.92-14.38-.41-28.77-.35-43.14,.18-21.88,.8-42.55,4.82-64.08,7.27-14.85,1.69-29.32,.69-44.01,4.44Z"></path></g><g id="image-logo"><path class="cls-7" d="M358.93,245.98l92.72-48.21c2.46-1.28,2.82-5.58,.79-9.88-16.85-35.88-34.82-71.36-53.81-106.27-2.4-4.41-6.4-6.83-8.98-5.45l-93.58,49.94c-2.53,1.35-2.78,5.87-.56,10.27,7.55,14.99,21.03,40.24,24.11,46.1,10.12,19.23,20.16,38.51,30.22,57.78,2.36,4.53,6.45,7.1,9.08,5.73Z"></path><path class="cls-8" d="M360.36,231.88l80.59-42.41c2.14-1.13,3.07-3.71,2.13-5.93-7.87-18.54-16.69-36.68-26.41-54.32-1.23-2.23-4.03-3.04-6.27-1.85l-81.53,43.56c-2.2,1.18-3.08,3.87-2,6.12,3.69,7.67,10.52,20.47,12.07,23.45,5.08,9.77,10.09,19.59,15.12,29.39,1.18,2.3,4.02,3.2,6.31,1.99Z"></path><path class="cls-7" d="M357.35,220.02c.68,1.54,1.57,3.25,3.2,3.66,1.25,.31,2.52-.27,3.67-.84,22.96-11.29,45.48-23.5,67.46-36.59,.97-.58,2.02-1.25,2.36-2.33,.36-1.17-.23-2.41-.82-3.49-2.61-4.87-5.22-9.73-7.83-14.6-2.43,.32-4.88,.45-7.33,.4-3.74-.08-7.04,2.4-8.1,5.99-1.41,4.76-3.08,9.44-5.01,14.02-8.91-5.3-17.97-10.34-27.18-15.1-4.62-2.39-10.3-.8-13.03,3.62l-11.99,19.4c-1.01,1.63-3.25,4.03-3.59,5.91-.33,1.81,1.01,3.68,1.73,5.31,2.16,4.88,4.32,9.76,6.48,14.64Z"></path><path class="cls-7" d="M388.2,159.07c-.51,4.3,2.33,8.76,6.44,10.12s9.05-.52,11.21-4.27c2.16-3.75,1.31-8.97-1.94-11.84-5.67-5.01-14.79-1.8-15.71,5.99Z"></path><path class="cls-8" d="M320.01,152.65c2.21,1.6,4.75,2.87,7.47,3.04,3.2,.2,6.37-1.16,8.83-3.23,5.59-4.72,7.46-13.42,4.07-19.9-3.89-7.42-15.91-11.71-22.52-5.56-8.39,7.79-6.81,19.15,2.16,25.65Z"></path><path class="cls-8" d="M349.67,121.16c1.94-.6,3.67-1.8,5.37-2.95,9.92-6.72,20.51-12.6,31.48-17.49,1.8-.8,3.67-1.61,5.12-2.9s2.36-3.19,1.61-4.46c-.69-1.16-2.54-1.43-4.25-1.04s-3.32,1.32-4.88,2.22c-9.53,5.53-19.06,11.07-28.58,16.6-2.63,1.53-7.9,3.37-9.86,5.54-2.52,2.8,.1,6.56,4,4.47Z"></path><path class="cls-8" d="M355.79,132.6c1.94-.6,3.67-1.8,5.37-2.95,9.92-6.72,20.51-12.6,31.48-17.49,1.8-.8,3.67-1.61,5.12-2.9s2.36-3.19,1.61-4.46c-.69-1.16-2.54-1.43-4.25-1.04s-3.32,1.32-4.88,2.22c-9.53,5.53-19.06,11.07-28.58,16.6-2.63,1.53-7.9,3.37-9.86,5.54-2.52,2.8,.1,6.56,4,4.47Z"></path><path class="cls-8" d="M361.54,143.35c1.94-.6,3.67-1.8,5.37-2.95,9.92-6.72,20.51-12.6,31.48-17.49,1.8-.8,3.67-1.61,5.12-2.9s2.36-3.19,1.61-4.46c-.69-1.16-2.54-1.43-4.25-1.04s-3.32,1.32-4.88,2.22c-9.53,5.53-19.06,11.07-28.58,16.6-2.63,1.53-7.9,3.37-9.86,5.54-2.52,2.8,.1,6.56,4,4.47Z"></path></g><g id="character"><path class="cls-4" d="M146.72,273.46c-3.7,2.58-7.59,5.01-10.51,8.45-2.92,3.44-4.76,8.17-3.52,12.5,1.7,6,8.78,9.15,14.98,8.45,6.2-.69,11.66-4.26,16.74-7.88,9.22-6.55,18.2-13.68,25.08-22.66,6.88-8.98,11.55-20.03,11.14-31.34-.71-19.71-15.07-8.26-21.53,.49-9.1,12.32-19.78,23.21-32.38,31.98Z"></path><path class="cls-6" d="M263.09,446.35c-2.45,1.99-5.16,4.66-4.5,7.75,.49,2.31,2.85,3.85,5.2,4.12,2.35,.28,4.69-.44,6.93-1.19,15.79-5.27,30.92-12.67,44.47-22.34,3.08-2.2,6.39-5.13,6.23-8.92-.18-4.24-4.65-6.96-8.77-7.97-3.39-.83-8.41-2.84-11.79-1.95-3.94,1.05-8.79,6.96-11.93,9.51-8.61,6.99-17.22,13.99-25.82,20.98Z"></path><path class="cls-6" d="M134.84,434.84c-3.13-.41-6.93-.54-8.72,2.05-1.34,1.95-.83,4.72,.58,6.61,1.41,1.89,3.54,3.1,5.62,4.22,14.68,7.85,30.45,13.76,46.79,16.95,3.72,.73,8.12,1.11,10.76-1.6,2.96-3.05,1.86-8.16-.24-11.85-1.73-3.04-3.71-8.07-6.69-9.91-3.46-2.14-11.09-1.6-15.11-2.13-11-1.45-21.99-2.9-32.99-4.34Z"></path><path class="cls-1" d="M283.82,373.81c9.48-4.04,21.03-7.48,29.85-3.49,10.16,4.59,10.89,16.59,7.05,26.05-8.19,20.21-30.33,34.99-52.21,47.11-13.67,7.58-28.26,14.83-44.21,16.92-26.96,3.53-52.14-8.39-70.98-23.07-12.4-9.66-23.36-20.99-28.54-34.53-2.51-6.55-3.52-14.03,.33-20.51,4.23-7.12,13.73-11.67,23.15-12.88,9.42-1.22,18.81,.43,27.59,2.78,19.6,5.23,37.49,14.02,52.07,25.56,5.01,3.96,5.04,5.98,11.04,1.7,4.55-3.25,9.09-6.48,13.89-9.48,9.75-6.11,20.13-11.52,30.97-16.14Z"></path><path class="cls-2" d="M221.74,419.59c-.08,0-.15-.02-.22-.05-21.63-10.86-41.53-23.89-59.13-38.71-.21-.18-.24-.49-.06-.7,.18-.21,.49-.24,.71-.06,17.54,14.78,37.37,27.76,58.93,38.58,.25,.12,.35,.42,.22,.67-.09,.17-.26,.28-.45,.28Z"></path><path class="cls-2" d="M175.78,450.43c-.15,0-.3-.07-.4-.2-.16-.22-.12-.54,.11-.7,34.71-25.49,72.61-48.18,112.65-67.46,.25-.12,.55-.02,.67,.23,.12,.25,.02,.55-.23,.67-39.99,19.25-77.84,41.91-112.49,67.36-.09,.07-.19,.1-.3,.1Z"></path><path class="cls-4" d="M296.78,338.51c3.17,9.19,5.73,20.22-.69,29.8-4.15,6.19-11.32,10.28-18.31,12.12-6.99,1.84-13.93,1.75-20.76,1.64-11.88-.19-23.89-.39-34.85-3.23-10.97-2.84-20.97-8.58-26.16-17.99-4.25-7.71-5.01-17.27-5.64-26.6-1.97-29.31-3.33-58.82-2.21-88.79,.23-6.16,1.1-13.38,6.49-17.84,4.25-3.52,9.87-4,14.78-3.74,28.42,1.51,39.23,18.68,51.7,38.99,14.49,23.59,26.44,48.95,35.64,75.65Z"></path><path class="cls-4" d="M234.43,256.23c-4.53-6.31-8.04-15.89-2.9-21.67,3.22-3.62,8.7-3.88,13.01-2.01,4.31,1.87,7.74,5.44,11.12,8.85,25.94,26.17,45.09,42.06,77.54,57.81,4.94,2.4,10.24,3.16,15.62,3.92,12.71,1.8,23.85-32.67,18.67-43.78,6.95,1.22,20.11,6.46,27.07,7.68-1.37,13.84-3.77,27.91-10.23,39.99-6.46,12.09-17.66,21.99-30.56,23.23-12.17,1.16-23.7-5.26-34.43-11.49-29.85-17.34-63.6-32.87-84.91-62.53Z"></path><g><path class="cls-6" d="M295.72,376.24c3.86,.11,7.89,.23,11.28,2.1,3.38,1.87,5.81,6.08,4.33,9.65-1.64,3.95-6.69,4.93-10.95,5.34-9.49,.93-18.98,1.85-28.47,2.78-16.35,1.6-32.75,3.19-49.16,2.66-16.9-.56-33.63-3.37-50.3-6.18-22.47-3.78-44.94-7.57-67.4-11.35-3.34-.56-6.86-1.21-9.43-3.41-2.57-2.2-3.64-6.53-1.3-8.98,1.38-1.44,3.48-1.85,5.45-2.16,25.83-4.18,52.16-5.27,78.25-3.26,11.35,.87,22.05,3.74,33.3,5.4,13.4,1.98,26.85,3.58,40.33,4.8,14.66,1.32,29.36,2.2,44.07,2.62Z"></path><path class="cls-2" d="M228.49,390.28c-6.87,0-13.75-.48-20.51-2.04-.3-.07-.49-.37-.42-.67,.07-.3,.37-.5,.67-.42,12.26,2.82,25.04,2.06,37.39,1.33l52.83-3.13c1.71-.1,3.45-.29,4.45-1.41,.54-.61,.54-1.64,.22-2.28-.16-.33-.44-.71-1.01-.69-.29,.02-.58-.22-.59-.53-.02-.31,.22-.58,.53-.59,.9-.05,1.66,.44,2.09,1.32,.48,.99,.5,2.52-.39,3.52-1.28,1.44-3.28,1.67-5.22,1.79l-52.83,3.13c-5.67,.34-11.44,.68-17.21,.68Z"></path><path class="cls-6" d="M198.82,377.5c.65,2.72,1.21,5.86-.47,8.09-2,2.65-5.95,2.5-9.24,2.08-26.29-3.34-52.46-7.68-78.42-13.02-8.01-1.65-16.35-3.55-22.62-8.8-5.93-4.96-9.26-12.3-12.15-19.48-11.56-28.73-19.09-59.09-22.28-89.9-.21-2.08-.39-4.28,.53-6.15,2.06-4.19,7.93-4.25,12.57-3.69,29.93,3.61,59.85,7.21,89.78,10.82,6.36,.77,12.57-.52,15.12,5.56,2.76,6.59,3.54,14.91,5.19,21.88,3.42,14.38,6.83,28.76,10.25,43.14,3.92,16.49,7.83,32.98,11.75,49.47Z"></path></g><path class="cls-5" d="M405.96,267.73c8.32-.14,17.4-2.38,22.23-9.15,3.96-5.55,4.19-12.98,2.97-19.69-1.45-7.93-4.72-15.52-9.49-22.02-2.96-4.03-6.64-7.74-11.29-9.55-4.66-1.81-10.43-1.36-14.04,2.1-3.6,3.46-3.94,10.13-.02,13.23-3-5.39-8.66-11.01-14.43-8.82-5.36,2.04-6.3,9.37-4.82,14.91,1.48,5.54,4.48,10.96,3.72,16.65-.59,4.45-3.42,8.33-4.23,12.75-2.54,13.88,21.32,9.71,29.4,9.57Z"></path><path class="cls-2" d="M404.7,262.17c-.17,0-.33-.08-.42-.23-.15-.23-.08-.54,.15-.69,4.51-2.88,7.31-8.45,7.3-14.53,0-5.15-1.94-10.67-5.59-15.96-3.29-4.77-7.55-8.86-11.67-12.82-.2-.19-.21-.51-.01-.71s.51-.2,.71-.01c4.16,3.99,8.45,8.12,11.8,12.98,3.77,5.46,5.76,11.17,5.77,16.53,0,6.42-2.97,12.32-7.77,15.38-.08,.05-.18,.08-.27,.08Z"></path><path class="cls-5" d="M224.33,194.31c-.26,6.28-1.37,13.54-7.72,17.1-5.38,3.02-12.76,2.02-17.85-1-5.09-3.02-8.38-7.66-11.41-12.23-16.88-25.49-29.91-52.7-42.89-79.83-2.93-6.13-5.9-12.93-3.25-19.33,3.56-8.62,15.61-12.63,26.36-14,10.62-1.36,28.08-3.14,37.39,2.25,8.75,5.06,9.57,17.96,11.48,25.9,6.37,26.55,9.03,53.84,7.89,81.14Z"></path><path class="cls-6" d="M220.31,99.07c4.66-6.19,4.62-16.02-1.27-21.05,7.88-1.77,13.54-10.35,12.08-18.29-1.46-7.94-9.81-13.94-17.8-12.79-1.86-8.95-8.71-16.69-17.36-19.64-8.65-2.95-18.8-.99-25.74,4.97-3.85-6.19-12.04-9.31-19.04-7.24-6.99,2.07-12.18,9.14-12.04,16.43-4.94-8.02-17.35-10.07-24.6-4.05-7.25,6.01-7.53,18.59-.56,24.93-8.67,.83-16.54,7.29-19.04,15.64-2.5,8.35,.53,18.07,7.32,23.52-5.86,6.11-7.24,16.08-3.26,23.55,3.98,7.48,13.02,11.89,21.36,10.44-5.43,4.95-3.95,14.43,1.11,19.75,5.06,5.33,12.49,7.56,19.56,9.56,4.92,1.39,10.01,2.78,15.07,2.07,5.06-.7,10.11-4.07,11.14-9.07,1.03-5-3.77-10.75-8.69-9.37,2.98-11.45-2.97-24.59-13.54-29.91-1.13-.57,4.31-10.19,4.92-11.07,3.42-4.88,6.15-4.75,11.13-7.09,7.02-3.3,8.08-6.69,15.25-1.84,12.62,8.53,32.37,16,43.99,.57Z"></path><path class="cls-5" d="M163.72,143.54c-1.24-2.3-3.65-3.96-6.25-4.14-2.6-.18-5.29,1.21-6.51,3.51-1.65,3.11-.49,7,1.38,9.98,1.89,3.02,4.55,5.63,7.81,7.06,3.26,1.42,7.17,1.56,10.34-.07"></path><path class="cls-6" d="M216.63,140.34c-.44,.61-1.48,.61-2.11,.18-.64-.43-.95-1.16-1.15-1.86-.38-1.31-1.11-6.73,1.66-5.6,1.36,.55,2.26,6.37,1.6,7.28Z"></path><path class="cls-6" d="M192.91,144.79c-.04,.81-.94,1.39-1.81,1.32-.87-.08-1.65-.68-2.09-1.41-.94-1.55-1.61-6.34,1.2-6.27,2.61,.07,2.79,4.7,2.7,6.36Z"></path><path class="cls-6" d="M212.98,192.21c-.68,3.33-3.49,6.07-6.8,6.87-3.31,.8-6.95-.28-9.44-2.59-1.68-1.56-2.88-3.66-3.43-5.88-.8-3.25,.1-3.44,3.1-2.7,5.54,1.37,11.05,2.87,16.57,4.3Z"></path><path class="cls-6" d="M209.45,145.8c-1.38,0-2.69-.22-3.91-.82-1.96-.96-3.63-3.19-4.37-5.82-.66-2.34-.45-4.61,.58-6.2,1.93-3.02,7.55-3.83,11.65-4.43,.93-.14,1.78-.26,2.48-.39,1.19-.23,2.54-.42,3.62,.24,1.06,.64,1.42,1.81,1.66,2.99,.38,1.9,.65,3.85,.8,5.78,.11,1.46,.15,3.13-.73,4.56-1.29,2.09-4.03,2.84-6.5,3.37-1.81,.39-3.59,.73-5.28,.73Zm8.24-16.88c-.52,0-1.07,.09-1.62,.2h0c-.72,.14-1.58,.26-2.53,.4-3.91,.57-9.27,1.35-10.95,3.98-.87,1.36-1.03,3.33-.46,5.4,.66,2.36,2.13,4.35,3.85,5.19,2.43,1.19,5.42,.69,8.53,.02,2.37-.51,4.78-1.16,5.86-2.92,.73-1.18,.68-2.66,.59-3.96-.14-1.89-.4-3.8-.78-5.66-.22-1.1-.51-1.91-1.2-2.33-.37-.23-.82-.31-1.3-.31Zm-1.71-.29h0Z"></path><path class="cls-6" d="M184.74,150.82c-1.79,0-3.58-.25-5.24-.93-1.88-.77-3.62-2.31-4.89-4.33-.49-.77-.73-1.6-.94-2.32-.32-1.1-.58-1.97-1.51-2.48-1.65-.91-4.07-1.37-6.21-1.77-.68-.13-1.33-.25-1.94-.39-2.91-.64-5.89-1.16-8.86-1.53-.27-.03-.47-.28-.43-.56,.04-.27,.29-.46,.56-.43,3,.38,6,.9,8.95,1.55,.59,.13,1.24,.25,1.91,.38,2.21,.42,4.72,.9,6.5,1.88,.21,.12,.39,.24,.56,.38,.11-.82,.41-1.58,.88-2.26,1.91-2.74,7.34-4.18,16.13-4.29,1.73-.02,3.64,.12,4.93,1.32,1.2,1.12,1.36,2.69,1.51,4.2,.06,.59,.12,1.15,.23,1.68,.11,.5,.27,1,.45,1.54,.5,1.55,1.02,3.15,.16,4.66-.91,1.59-2.92,2.15-4.73,2.55-2.32,.51-5.17,1.14-8.02,1.14Zm-10.81-9.68c.33,.56,.52,1.2,.7,1.82,.2,.69,.41,1.41,.83,2.07,.67,1.07,2.14,3,4.43,3.94,4.02,1.64,9.02,.54,12.66-.27,1.6-.35,3.37-.84,4.08-2.07,.65-1.12,.21-2.45-.24-3.86-.17-.54-.35-1.09-.47-1.64-.13-.59-.19-1.2-.25-1.79-.14-1.39-.28-2.7-1.2-3.57-1.03-.97-2.82-1.07-4.23-1.05-8.45,.11-13.61,1.41-15.33,3.87-.45,.64-.7,1.37-.75,2.18,0,.16-.1,.3-.22,.39Z"></path><path class="cls-6" d="M195.89,139.94c-.25,0-.46-.18-.5-.44-.04-.27,.16-.52,.43-.56l6.39-.84c.27-.04,.53,.16,.56,.43,.04,.27-.16,.52-.43,.56l-6.39,.84s-.04,0-.07,0Z"></path><path class="cls-5" d="M67.17,274.44c4.27,4.81,4.61,12.66,.77,17.82,7.4,2.92,10.73,11.52,11.97,19.38,1.16,7.36,.5,16.32-5.86,20.2-4.89,2.99-11.52,1.56-16.03-1.97-4.51-3.53-7.33-8.76-9.79-13.94-3.33-7-6.27-14.31-7.05-22.02-1.38-13.66,10.97-36.39,25.99-19.47Z"></path><path class="cls-2" d="M43.97,305.94c-.08,0-.17-.02-.25-.07-.24-.14-.32-.44-.18-.68,4.91-8.56,14.84-13.78,24.66-13.01,.28,.02,.48,.26,.46,.54-.02,.28-.28,.48-.54,.46-9.48-.75-18.99,4.28-23.72,12.51-.09,.16-.26,.25-.43,.25Z"></path></g><g id="paper-stack"><path class="cls-7" d="M335.8,281.54c18.28-1.34,36.56-2.67,54.84-4.01,3.19-.23,6.52-.45,9.49,.74,4.83,1.93,7.49,6.98,11,10.83,8.83,9.7,23.1,11.75,36.16,13.01,13.06,1.26,27.27,2.83,36.64,12.01-8.78,.56-14.67,9.85-23.23,11.9-8.48,2.03-16.7-3.46-25.02-6.1-12.11-3.85-25.19-1.63-37.83-.29-12.42,1.32-29.25,1.84-40.22-5.55-4.06-2.73-7-6.9-9.85-10.79-1.36-1.86-12.26-21.74-11.98-21.76Z"></path><path class="cls-8" d="M460.37,411.25c2.58-1.15,5.29-1.99,8.05-2.58,.16-5.49,.32-10.98,.48-16.47,.24-8.35,.39-16.72,.72-25.07,.28-6.92,1.83-9.25,3.28-15.16,1.39-5.65,1.79-4.36-1.32-8.9-3.69-5.39-10.29-9.29-14.83-13.11-2.32-1.95-28.5-21.82-28.5-21.79-9.84,38.06-19.26,77.7-17.39,118.16,.39,8.36,1.44,17.26,5.51,23.33,6.2,9.26,16.81,8.32,25.32,4.23,8.51-4.09,16.75-10.7,25.74-10.62,.3-10.29,.59-20.58,.89-30.87-2.69-.03-5.37-.39-7.95-1.15Z"></path><path class="cls-7" d="M429.36,307.71c0,2.92-47.43,11.75-52.03,12.69-8.9,1.8-17.83,3.43-26.8,4.87-11.31,1.82-13.88-.02-13.47,11.99,.44,12.96,.65,25.92,.64,38.88,2.76,.61,5.53,1.22,8.29,1.83-2.76,.69-5.53,1.37-8.29,2.06-.09,23.17-.88,46.34-2.38,69.46,31.36,3.42,62.73,6.84,94.09,10.26-.02-50.68-.04-101.35-.06-152.03Z"></path><path class="cls-8" d="M404,346.73c14.22-3.93,30.08-1.47,42.44,6.6-6.31-3.68-10.63-12.59-18-14.1-7.27-1.49-18.44,3.94-24.44,7.51Z"></path><path class="cls-8" d="M431.34,438.02c-8.07-.64-16.15-1.27-24.22-1.91,5.18,1.71,10.38,3.42,15.68,4.7,2.11,.51,4.27,.95,6.44,.81,6.7-.44,11.69-6.15,15.86-11.41-3.97,2.93-8.37,5.27-13.01,6.95"></path></g><g id="plant"><path class="cls-4" d="M38.79,404.84c-3.3-2.7-7.49-5.29-8-9.52-.21-1.73,.26-3.52-.16-5.21-1-4.04-6.21-5.29-8.73-8.6-3.58-4.72-.65-11.72-2.64-17.31-1.75-4.91-7.08-8.07-8.17-13.16-.52-2.4,0-4.89,.25-7.33,.25-2.44,.16-5.12-1.35-7.06,2.61,.69,4.14,3.37,5.02,5.92,.88,2.55,1.47,5.34,3.32,7.3,2.83,2.99,7.51,2.99,11.33,4.5,4.81,1.9,8.41,6.58,9,11.72,.43,3.67-.47,7.78,1.63,10.82,2.09,3.02,6.39,3.77,8.7,6.62,4.16,5.14-.43,13.37,2.61,19.23,.93,1.79,2.5,3.18,3.49,4.94,2.15,3.81,1.22,8.59-.3,12.69-1.52,4.1-3.6,8.15-3.64,12.52,.08-10.38-4.28-21.44-12.39-28.08Z"></path><path class="cls-4" d="M42.6,322.95c-1.67,4.12-2.37,9.1,.06,12.82,2.12,3.23,6.37,5.15,7.12,8.94,.58,2.91-1.19,5.73-3.08,8.02-1.88,2.29-4.06,4.6-4.5,7.53-.71,4.68,3.14,8.61,5.7,12.59,2.51,3.92,3.91,8.43,5.27,12.88,1.37,4.47,2.75,8.95,4.12,13.42,1.63,5.32,3.24,11.17,1.06,16.29,4.16-7.17,5.55-15.91,3.82-24.03-.67-3.13-1.79-6.24-1.54-9.43,.37-4.68,3.68-9.03,2.85-13.65-.58-3.18-3.06-5.83-3.31-9.05-.3-3.87,2.63-7.15,3.94-10.8,1.89-5.27,0-11.66-4.45-15.06-2.66-2.03-6.3-3.31-7.44-6.46-1.72-4.73,3.62-9.65,2.51-14.57-.81-3.59-4.96-5.98-8.23-6.88,.53,3.1,1.67,4.91,.52,7.99-1.19,3.19-3.6,6.15-4.42,9.44Z"></path><path class="cls-4" d="M106.54,333.31c-3.16,2.01-6.99,2.56-10.59,3.59-3.6,1.03-7.34,2.85-8.89,6.26-2.08,4.57,.44,10.54-2.45,14.64-1.95,2.77-5.65,3.59-8.49,5.44-4.05,2.64-6.32,7.75-5.58,12.53,.34,2.21,1.27,4.43,.77,6.61-.55,2.39-2.66,4.06-3.99,6.12-2.48,3.83-2.14,8.77-1.84,13.32,.29,4.56,.31,9.59-2.61,13.1,10.07-3.82,14.89-15.25,23.48-21.75,2.06-1.56,4.33-2.83,6.32-4.47,1.99-1.64,3.74-3.76,4.26-6.29,.97-4.77-2.62-9.56-1.79-14.37,.93-5.36,7.08-9.05,6.96-14.5-.09-4.03-3.71-8.05-1.9-11.66,1.18-2.36,4.1-3.12,6.31-4.55,3.02-1.95,6.29-7.44,4.41-11.05-.22,2.88-1.95,5.48-4.37,7.02Z"></path><path class="cls-3" d="M35.62,448.23c1.33,3.5,3.07,7.17,6.35,8.97,2.28,1.25,4.99,1.4,7.6,1.47,4.9,.12,9.8,.03,14.69-.26,2.79-.17,5.67-.43,8.1-1.8,2.78-1.56,4.62-4.36,6.17-7.14,4.83-8.66,7.96-18.26,9.17-28.1,.35-2.88,.42-6.17-1.59-8.27-1.87-1.96-4.87-2.18-7.58-2.27-12.56,0-25.18-.86-37.73-1.26-3.17-.1-10.14-1.71-11.84,2.02-1.82,4,.56,12.66,1.27,16.85,1.15,6.75,2.95,13.4,5.39,19.8Z"></path><path class="cls-2" d="M46.42,408.29s-.05,0-.07,0c-.24-.04-.41-.27-.37-.51,.43-2.6-.68-5.5-3.39-8.88-.36-.45-.74-.9-1.11-1.35-1.82-2.19-3.71-4.46-4.5-7.26-.38-1.34-.49-2.78-.6-4.16-.18-2.31-.35-4.49-1.67-6.18-.69-.89-1.63-1.53-2.63-2.21-.48-.33-.97-.66-1.43-1.03-5.45-4.31-6.36-12.1-6.78-19.07-.02-.25,.17-.46,.42-.47,.26-.03,.46,.17,.47,.42,.41,6.77,1.29,14.34,6.45,18.42,.44,.35,.91,.67,1.38,.99,1.01,.69,2.05,1.4,2.83,2.4,1.48,1.9,1.67,4.32,1.86,6.66,.11,1.34,.21,2.73,.57,3.99,.74,2.61,2.56,4.81,4.32,6.93,.38,.45,.75,.91,1.12,1.36,2.88,3.59,4.05,6.73,3.58,9.59-.04,.22-.23,.37-.44,.37Z"></path><path class="cls-2" d="M57.75,393.58c-.21,0-.4-.15-.44-.37l-3.74-21.23c-.68-3.85-1.38-7.83-.92-11.83,.23-2.02,.76-4,1.27-5.91,.49-1.84,1-3.74,1.23-5.64,.7-5.7-1.14-11.69-4.93-16.01-.16-.19-.14-.47,.04-.63s.47-.14,.63,.04c3.95,4.51,5.87,10.75,5.14,16.7-.24,1.96-.76,3.89-1.26,5.76-.5,1.88-1.03,3.83-1.25,5.78-.44,3.87,.25,7.79,.91,11.57l3.74,21.23c.04,.24-.12,.47-.36,.52-.03,0-.05,0-.08,0Z"></path><path class="cls-2" d="M68.73,405.4h0c-.25,0-.45-.2-.44-.45,.04-4.27,2.88-7.6,5.62-10.82,2.19-2.57,4.46-5.24,5.31-8.37,.33-1.21,.45-2.51,.56-3.76,.16-1.75,.33-3.57,1.06-5.23,.97-2.22,2.79-3.85,4.55-5.42,.85-.76,1.74-1.56,2.5-2.4,5.04-5.56,5.58-13.6,5.71-22.06,0-.25,.24-.42,.45-.44,.25,0,.44,.21,.44,.45-.14,8.63-.69,16.86-5.95,22.64-.79,.88-1.7,1.68-2.57,2.46-1.77,1.58-3.43,3.08-4.33,5.12-.67,1.53-.83,3.19-.99,4.95-.12,1.29-.24,2.63-.59,3.92-.91,3.32-3.24,6.06-5.49,8.71-2.76,3.24-5.37,6.31-5.41,10.25,0,.25-.2,.44-.45,.44Z"></path></g></svg>