<svg transform="scale(1)" id="_0792_Designer_2" xmlns="http://www.w3.org/2000/svg" viewBox="0 0 500 500" class="show_show__wrapper__graphic__5Waiy "><title>React</title><defs><style>.cls-1{fill:#d6b2a4;}.cls-2{fill:#fff;}.cls-3{fill:#3c4368;}.cls-4{fill:#ffde91;}.cls-5{fill:#af93a2;}.cls-6{fill:#292e54;}.cls-7{fill:#e6e7e8;}.cls-8{fill:#bcbec0;}</style></defs><g id="pillow"><path class="cls-7" d="M94.45,192.46c-14.51-1.53-29.63-1.02-43,4.82-18.51,8.08-31.72,25.87-37.22,45.3-5.5,19.43-3.96,40.32,1.13,59.86,8.96,34.39,28.95,65.8,56.31,88.48,27.36,22.67,61.94,36.49,97.39,38.91,24.17,1.65,48.42-1.86,72.11-6.91,24.27-5.17,49.09-12.42,67.78-28.75,18.69-16.33,29.55-43.94,19.76-66.75-5.8-13.5-17.99-23.57-31.56-29.21-13.57-5.64-28.48-7.26-43.18-7.47-10.08-.14-20.33,.34-30.08-2.24-11.27-2.98-18.83-9.24-21.69-20.16-2.71-10.34-9.45-20.1-16.18-28.32-14.26-17.42-33.54-30.42-54.44-38.53-11.91-4.62-24.43-7.69-37.14-9.03Z"></path><path class="cls-8" d="M115.4,358.24c-.13,0-.27-.05-.37-.16-.19-.2-.17-.52,.03-.71,23.78-21.78,55.69-35.31,87.89-37.33-26.38-9.26-55.81-11.27-83.16-5.64-.27,.05-.53-.12-.59-.39-.06-.27,.12-.53,.39-.59,28.34-5.83,58.89-3.52,86.03,6.52,.22,.08,.36,.31,.32,.55-.04,.24-.23,.41-.47,.42-32.81,1.46-65.52,15.02-89.73,37.2-.1,.09-.22,.13-.34,.13Z"></path></g><g id="table"><path class="cls-8" d="M409.97,297.8c.3,2.08,.58,4.25,.55,6.37-.03,1.97-2.8,2.38-3.33,.48,0-.01,0-.02,0-.03-.69-2.53-1.37-5.05-2.03-7.59-1.22-4.64-2.41-9.29-3.56-13.95-2.35-9.53-4.55-19.1-6.6-28.7-1.04-4.87-2.36-9.81-3.02-14.75-.46-3.41,1.55-4.06,3.61-1.12,2.39,3.42,3.22,9.71,4.4,13.72,1.33,4.5,2.56,9.02,3.69,13.58,2.63,10.55,4.74,21.23,6.31,32Z"></path><path class="cls-8" d="M382.16,296.26c.06,2.08-.5,5.04-1.77,4.54-.81-.33-1.07-1.94-1.18-3.27-1.62-19.43-3.23-38.87-4.85-58.3-.37-4.41,1.69-10.27,4.06-5.07,1.71,3.76,1.29,14.37,1.62,18.95,1.01,14.34,1.72,28.74,2.12,43.15Z"></path><path class="cls-8" d="M335.09,295.43c-.3,2.07-.58,4.21-.55,6.31,.03,1.95,2.8,2.36,3.33,.48,0-.01,0-.02,0-.03,.69-2.5,1.37-5.01,2.03-7.52,1.22-4.6,2.41-9.21,3.56-13.83,2.35-9.45,4.55-18.94,6.6-28.46,1.04-4.83,2.36-9.73,3.02-14.63,.46-3.38-1.55-4.03-3.61-1.11-2.39,3.39-3.22,9.63-4.4,13.61-1.33,4.46-2.56,8.95-3.69,13.46-2.63,10.46-4.74,21.06-6.31,31.73Z"></path><path class="cls-8" d="M352.82,302.38c-.11,2.08,.93,5.02,3.28,4.52,1.51-.32,1.99-1.93,2.2-3.25,2.99-19.36,5.99-38.72,8.98-58.07,.68-4.39-3.14-10.23-7.53-5.05-3.18,3.75-2.4,14.32-3,18.87-1.88,14.29-3.19,28.62-3.94,42.99Z"></path><path class="cls-1" d="M401,250.34c4.27-1.1,8.69-2.64,12.04-6.92,1.19-1.51,2.28-3.73,1.98-6.08-.34-2.68-2.27-3.99-3.95-4.75-10.01-4.47-20.6-4.53-31.01-4.05-10.28,.47-20.55,1.42-30.79,2.85-4.35,.61-8.85,1.38-12.59,4.9-1.63,1.53-3.21,4.15-2.84,7.07,.38,3.08,2.63,4.51,4.57,5.29,7.54,3.05,33.32,4.31,35.44,4.43,4.27,.23,8.54,.15,12.81-.25,4.8-.44,9.59-1.27,14.33-2.49Z"></path><path class="cls-2" d="M371.83,249.11c-5.68,0-11.57-.29-17.68-.86-4.97-.46-10.21-1.16-14.97-4.02-.97-.58-1.96-1.3-2.6-2.61-.63-1.27-.82-3.35-.04-4.62,.13-.21,.41-.28,.62-.15,.21,.13,.28,.41,.15,.62-.6,.99-.43,2.71,.08,3.75,.54,1.09,1.4,1.72,2.25,2.23,4.6,2.77,9.52,3.42,14.59,3.89,19.08,1.78,35.88,.78,51.37-3.06,1.81-.45,3.42-.92,4.8-2.21,1.58-1.46,2.55-3.93,2.49-6.29,0-.25,.19-.46,.44-.47,.26-.01,.46,.19,.47,.44,.07,2.61-1.02,5.35-2.78,6.98-1.54,1.43-3.34,1.96-5.2,2.42-10.62,2.63-21.85,3.94-33.99,3.94Z"></path><path class="cls-8" d="M407.25,283.08c-.34-2.91-3.31-4.7-6.02-5.83-17.44-7.27-40.32-6.2-57.37,1.71-2.62,1.22-5.53,3.18-5.5,6.07,.04,3.76,4.74,5.38,8.47,5.85,16.91,2.13,34.11,2.19,50.96-.37,2.2-.33,4.46-.74,6.36-1.91s3.36-3.31,3.1-5.52Zm-12.87,5.32c-14.61,.77-29.26,.78-43.87,.02-1.87-.1-4.37-.93-4.09-2.78,.14-.94,1.01-1.57,1.82-2.07,10.73-6.6,23.74-9.12,36.18-7.37,3.89,.55,8.67,.84,11.92,3.25,4.85,3.59,4.62,8.6-1.96,8.95Z"></path></g><g id="board"><g id="presentation"><path class="cls-7" d="M313.41,61.24c-8.33,.24-88.26,.12-96.6,.36-.89,.03-1.96,.32-2.37,2.35-.18,.91-.18,1.98-.18,2.99,.03,5.09,.05,10.21,.08,15.34,.08,16.6-.5,33.39-.42,50.37,.02,3.59,.16,7.8,1.32,9.68,.66,1.06,1.48,1.06,2.25,1.03,7.87-.31,88.54,.57,96.4,.26,.86-.03,1.78-.12,2.46-1.5,1.01-2.06,1.04-5.98,.99-9.35-.2-14.17-.6-29.01-.45-42.9,.07-6.82,.1-13.63,.25-20.38,.13-5.97-1.61-8.31-3.75-8.25Z"></path></g><path class="cls-8" d="M256.87,85.78c.59,6.73-3.54,13.6-9.75,16.24s-14.03,.84-18.46-4.26c-4.43-5.09-5.13-13.09-1.66-18.87,7.83-13.05,28.54-8.25,29.87,6.89Z"></path><path class="cls-8" d="M225.59,133.65c.01,.99,.84,1.79,1.85,1.78l29.34-.22c.58,0,1.21-.02,1.71-.33,.89-.55,1-1.74,1-2.74,.05-7.38,.1-14.93,.14-22.64,0-1.06-.82-1.88-1.88-1.86-5.99,.09-24.34,.26-30.61,.45-1.06,.03-1.9,.93-1.88,2.01,.18,7.95,.24,15.89,.32,23.56Z"></path><path class="cls-8" d="M270.29,131.28c.01,2.32,.84,4.17,1.85,4.15l29.34-.52c.58-.01,1.21-.05,1.71-.77,.89-1.29,1-4.05,1-6.39,.05-17.22,.1-34.8,.14-52.77,0-2.46-.82-4.38-1.88-4.35-5.99,.21-24.34,.61-30.61,1.04-1.06,.07-1.9,2.17-1.88,4.68,.18,18.53,.24,37.05,.32,54.93Z"></path></g><g id="board-2"><g id="presentation-2"><path class="cls-7" d="M438.29,61.24c-8.33,.24-88.26,.12-96.6,.36-.89,.03-1.96,.32-2.37,2.35-.18,.91-.18,1.98-.18,2.99,.03,5.09,.05,10.21,.08,15.34,.08,16.6-.5,33.39-.42,50.37,.02,3.59,.16,7.8,1.32,9.68,.66,1.06,1.48,1.06,2.25,1.03,7.87-.31,88.54,.57,96.4,.26,.86-.03,1.78-.12,2.46-1.5,1.01-2.06,1.04-5.98,.99-9.35-.2-14.17-.6-29.01-.45-42.9,.07-6.82,.1-13.63,.25-20.38,.13-5.97-1.61-8.31-3.75-8.25Z"></path></g><path class="cls-2" d="M382.66,96.5c.59,6.73-3.54,13.6-9.75,16.24s-14.03,.84-18.46-4.26c-4.43-5.09-5.13-13.09-1.66-18.87,7.83-13.05,28.54-8.25,29.87,6.89Z"></path><path class="cls-8" d="M364.12,94.02c.01,.99,.84,1.79,1.85,1.78l29.34-.22c.58,0,1.21-.02,1.71-.33,.89-.55,1-1.74,1-2.74,.05-7.38,.1-14.93,.14-22.64,0-1.06-.82-1.88-1.88-1.86-5.99,.09-24.34,.26-30.61,.45-1.06,.03-1.9,.93-1.88,2.01,.18,7.95,.24,15.89,.32,23.56Z"></path><path class="cls-2" d="M395.17,133.37c.01,1.15,.84,2.07,1.85,2.06l29.34-.26c.58,0,1.21-.02,1.71-.38,.89-.64,1-2.01,1-3.17,.05-8.55,.1-17.29,.14-26.22,0-1.22-.82-2.18-1.88-2.16-5.99,.1-24.34,.3-30.61,.52-1.06,.04-1.9,1.08-1.88,2.32,.18,9.2,.24,18.41,.32,27.29Z"></path></g><g id="plant"><path class="cls-4" d="M358.44,197.84c-2.48-2.03-5.64-3.98-6.02-7.17-.16-1.3,.2-2.65-.12-3.92-.76-3.04-4.68-3.98-6.57-6.48-2.7-3.56-.49-8.83-1.99-13.03-1.32-3.69-5.33-6.08-6.15-9.91-.39-1.81,0-3.68,.19-5.52,.19-1.84,.12-3.86-1.02-5.32,1.96,.52,3.12,2.54,3.78,4.46,.66,1.92,1.1,4.02,2.5,5.49,2.13,2.25,5.65,2.25,8.54,3.39,3.62,1.43,6.33,4.96,6.78,8.83,.32,2.77-.36,5.86,1.23,8.15,1.58,2.28,4.81,2.84,6.55,4.99,3.13,3.87-.32,10.07,1.97,14.49,.7,1.35,1.88,2.4,2.63,3.72,1.62,2.87,.92,6.47-.22,9.56-1.14,3.09-2.71,6.14-2.74,9.43,.06-7.82-3.22-16.15-9.33-21.15Z"></path><path class="cls-4" d="M361.31,136.17c-1.26,3.1-1.79,6.85,.05,9.65,1.6,2.43,4.8,3.88,5.36,6.73,.44,2.19-.9,4.32-2.32,6.04-1.42,1.72-3.06,3.46-3.39,5.67-.53,3.52,2.37,6.49,4.29,9.48,1.89,2.95,2.94,6.35,3.97,9.7,1.03,3.37,2.07,6.74,3.1,10.11,1.23,4,2.44,8.41,.8,12.27,3.14-5.4,4.18-11.99,2.87-18.1-.5-2.36-1.35-4.7-1.16-7.1,.28-3.52,2.78-6.8,2.14-10.28-.43-2.39-2.31-4.39-2.5-6.82-.23-2.91,1.98-5.38,2.97-8.14,1.42-3.97,0-8.79-3.35-11.34-2-1.53-4.75-2.5-5.6-4.86-1.29-3.56,2.72-7.27,1.89-10.97-.61-2.7-3.73-4.5-6.2-5.18,.4,2.33,1.26,3.7,.39,6.02-.89,2.4-2.71,4.63-3.33,7.11Z"></path><path class="cls-4" d="M409.47,143.97c-2.38,1.52-5.27,1.93-7.98,2.7-2.71,.77-5.53,2.15-6.7,4.72-1.56,3.44,.33,7.94-1.84,11.03-1.47,2.09-4.25,2.7-6.39,4.1-3.05,1.99-4.76,5.84-4.21,9.43,.26,1.67,.96,3.34,.58,4.98-.41,1.8-2,3.06-3.01,4.61-1.87,2.89-1.61,6.6-1.39,10.03,.22,3.43,.23,7.22-1.97,9.86,7.58-2.88,11.22-11.49,17.68-16.38,1.55-1.17,3.26-2.13,4.76-3.37,1.5-1.24,2.82-2.83,3.2-4.74,.73-3.6-1.97-7.2-1.35-10.82,.7-4.04,5.33-6.82,5.24-10.92-.07-3.04-2.79-6.06-1.43-8.78,.89-1.77,3.08-2.35,4.75-3.43,2.27-1.47,4.74-5.6,3.32-8.33-.17,2.17-1.47,4.13-3.29,5.29Z"></path><path class="cls-3" d="M356.06,230.53c1,2.63,2.31,5.4,4.78,6.75,1.72,.94,3.76,1.06,5.72,1.1,3.69,.09,7.38,.03,11.06-.19,2.1-.13,4.27-.32,6.1-1.35,2.09-1.18,3.48-3.28,4.65-5.38,3.64-6.52,5.99-13.75,6.9-21.17,.27-2.17,.31-4.64-1.2-6.23-1.41-1.47-3.67-1.64-5.71-1.71-9.46,0-18.96-.65-28.42-.95-2.39-.08-7.64-1.29-8.92,1.52-1.37,3.01,.42,9.54,.96,12.69,.87,5.09,2.22,10.09,4.06,14.91Z"></path><path class="cls-2" d="M364.19,200.55s-.05,0-.07,0c-.24-.04-.41-.27-.37-.51,.32-1.92-.51-4.08-2.53-6.6-.27-.34-.55-.68-.83-1.01-1.38-1.66-2.81-3.38-3.41-5.51-.29-1.02-.37-2.11-.46-3.15-.14-1.72-.26-3.35-1.24-4.6-.51-.66-1.21-1.14-1.96-1.64-.37-.25-.73-.5-1.08-.78-4.14-3.28-4.83-9.17-5.15-14.44-.02-.25,.17-.46,.42-.47,.25-.03,.46,.17,.47,.42,.32,5.31,.96,10.74,4.82,13.79,.33,.26,.68,.5,1.03,.74,.77,.52,1.56,1.07,2.15,1.83,1.14,1.46,1.28,3.3,1.42,5.08,.08,1.01,.16,2.04,.42,2.98,.55,1.95,1.92,3.59,3.24,5.18,.28,.34,.57,.68,.84,1.03,2.19,2.73,3.08,5.12,2.72,7.31-.04,.22-.23,.37-.44,.37Z"></path><path class="cls-2" d="M372.73,189.47c-.21,0-.4-.15-.44-.37l-2.82-15.99c-.51-2.91-1.04-5.92-.69-8.94,.18-1.53,.58-3.02,.96-4.47,.37-1.38,.75-2.81,.92-4.23,.52-4.26-.85-8.74-3.69-11.97-.16-.19-.14-.47,.04-.63,.19-.16,.47-.14,.63,.04,3,3.42,4.45,8.15,3.9,12.67-.18,1.48-.57,2.94-.95,4.35-.38,1.42-.77,2.88-.94,4.34-.33,2.89,.19,5.84,.69,8.69l2.82,15.99c.04,.24-.12,.47-.36,.52-.03,0-.05,0-.08,0Z"></path><path class="cls-2" d="M380.99,198.37h0c-.25,0-.44-.2-.44-.45,.03-3.26,2.18-5.78,4.26-8.22,1.64-1.93,3.34-3.92,3.98-6.26,.25-.9,.33-1.88,.42-2.82,.12-1.33,.25-2.7,.8-3.97,.74-1.69,2.12-2.93,3.46-4.12,.64-.57,1.3-1.17,1.88-1.8,3.77-4.16,4.17-10.2,4.27-16.54,0-.24,.2-.44,.45-.44h0c.25,0,.44,.21,.44,.45-.1,6.52-.52,12.74-4.51,17.12-.6,.66-1.28,1.27-1.94,1.86-1.32,1.18-2.57,2.3-3.23,3.82-.5,1.14-.61,2.38-.73,3.7-.09,.98-.18,1.99-.45,2.97-.69,2.53-2.45,4.6-4.16,6.6-2.07,2.43-4.02,4.72-4.05,7.65,0,.25-.2,.44-.45,.44Z"></path></g><g id="character"><path class="cls-1" d="M281.59,221.97c2.76-.21,6.11-.94,6.89-3.59,.83-2.81-2-5.38-4.74-6.4s-5.94-1.52-7.8-3.78c-2.8-3.41-.55-9.01,3.36-11.06s8.64-1.51,12.95-.58c8.33,1.79,16.67,5.03,22.55,11.2,5.88,6.17,8.72,15.76,5.17,23.51-3.14,6.85-10.57,10.94-18.01,12.08-7.45,1.15-15.03-.18-22.45-1.5-17.28-3.08-34.57-6.15-51.85-9.23-11.01-1.96-22.2-3.98-32.21-8.96-5.53-2.75-17.33-9.77-18.48-16.63-1.85-11.12,14.01-1.68,17.69-.07,17.52,7.71,36.25,12.63,55.29,14.57,10.5,1.07,21.1,1.23,31.63,.44Z"></path><path class="cls-1" d="M359.29,412.24c6.74,7.15,16.06,11.84,25.82,12.98,1.8,.21,3.79,.26,5.25-.82,1.8-1.33,2.14-3.99,1.4-6.1s-2.33-3.79-3.87-5.41c-6.4-6.71-12.8-13.41-19.19-20.12-2.69-2.82-5.43-5.68-8.85-7.55-7.23-3.96-12.54-1.32-11.12,6.83,1.3,7.44,5.43,14.73,10.56,20.18Z"></path><path class="cls-1" d="M445.72,422.67c2.18,3.83,6,6.46,9.95,8.42,6.72,3.34,14.1,5.1,21.4,6.84,1.99,.47,4.03,.95,6.07,.8s4.14-1.03,5.26-2.75c1.26-1.93,1.03-4.54-.02-6.58s-2.8-3.63-4.57-5.1c-7.28-6.05-15.54-10.91-24.36-14.35-9.72-3.78-20.44,.9-13.71,12.72Z"></path><path class="cls-5" d="M172.97,292.14c1.24,3.52,2.5,7.1,4.66,10.15,2.16,3.05,5.37,5.55,9.08,5.99,4.81,.57,9.48-2.48,12.17-6.51s3.75-8.9,4.62-13.66c1.56-8.64,2.63-17.36,3.2-26.12,.34-5.26,.43-10.86-2.22-15.41-4.25-7.32-14.38-9.37-22.47-6.91-6.86,2.08-20.81,9.53-21.24,17.41-.26,4.87,4.42,12.9,6.07,17.58,2.04,5.83,4.09,11.66,6.13,17.48Z"></path><path class="cls-4" d="M116.14,186.26c-1.91,25-10.28,50.28-29.08,70.57,21.72,4.14,44.34,5.37,66.58,3.6,2.3-.18,4.74-.44,6.5-1.62,2.09-1.4,2.66-3.7,3.08-5.82,8.1-41.02,6.34-82.95-.57-124.1-.85-5.06-1.8-10.18-4.43-14.85-2.62-4.67-7.16-8.91-13.28-10.68-5.66-1.64-12.06-1-17.66,.75-4.82,1.51-12.36,4.22-15.61,7.57-3.33,3.44-.11,10.62,.5,14.5,2,12.74,3.69,25.53,4.25,38.37,.31,7.23,.27,14.48-.28,21.71Z"></path><path class="cls-5" d="M143.09,172.41c5.11,5.44,11.62,10.88,19.04,10.13,6.66-.67,11.94-6.4,14.13-12.73,2.19-6.33,.68-39.57,.23-49.41-.5-10.81-1.85-23.23-10.79-29.33-7.09-4.84-16.59-3.87-24.86-1.58-9.64,2.67-19.38,6.82-27.56,12.64-8.55,6.09-4.87,12.36-1.42,21.05,7.22,18.17,17.86,34.97,31.24,49.23Z"></path><path class="cls-6" d="M165.1,129.56c-.23,.55-.28,1.16-.32,1.75-.07,.92-.14,1.88,.21,2.73,.34,.86,1.23,1.57,2.13,1.4,1.03-.19,1.55-1.33,1.88-2.33,.44-1.35,.76-3.6-.71-4.53-1.09-.7-2.69-.2-3.18,.97Z"></path><path class="cls-6" d="M149.13,133.53c0,.97,.15,1.97,.69,2.77s1.52,1.36,2.47,1.17c2.52-.52,2.26-4.76,1.08-6.36-1.85-2.52-4.24,.1-4.24,2.42Z"></path><path class="cls-6" d="M153.55,159.64c-.41-.54-.82-1.16-1.46-1.33-.94-.24-1.85,.75-1.91,1.77-.07,1.01,.46,1.96,1.05,2.77,1.54,2.1,3.66,3.72,6.04,4.62,1.8,.68,3.81,.95,5.65,.39,1.84-.56,3.49-2.04,4-3.98,.18-.69,.21-1.45-.09-2.09-1.17-2.48-4.03,1.28-5.86,1.37-2.79,.14-5.67-1.25-7.41-3.52Z"></path><path class="cls-4" d="M120.84,211.51c-.22-23.11-.47-46.48-6.2-68.86-1.16-4.52-2.55-9.02-3.01-13.67-.47-4.65,.05-9.55,2.48-13.54,2.42-3.99,7.02-6.86,11.66-6.32,7.06,.83,7.9,7,7.85,12.62-.06,7.3,1.8,14.78,2.01,22.14,.43,14.9-1.29,29.89-5.43,44.22-2.34,8.08-5.45,15.94-9.35,23.4Z"></path><path class="cls-3" d="M328.98,350.33c39.19,16.57,75.66,42.52,97.55,79.01,11.6-6.31,23.2-12.62,34.8-18.93,2-1.09,4.24-2.51,4.48-4.77,.17-1.57-.7-3.05-1.56-4.37-25.74-39.81-67.6-68.85-113.9-79.03-14.35-3.15-29.04-4.56-43.46-7.39-25.64-5.02-50.98-14.56-77.03-12.6-7.21,.54-18.01,2.71-22.22,9.43-5.87,9.36,15.35,9.61,21.04,10.7,21.76,4.18,43.46,8.87,64.69,15.25,12.07,3.63,23.99,7.8,35.61,12.71Z"></path><path class="cls-5" d="M137.24,141.42c-1.97-1.23-4.49-2-6.6-1.03-1.85,.85-2.96,2.95-2.91,4.98,.05,2.04,1.14,3.96,2.68,5.3,1.18,1.04,2.67,1.78,4.24,1.85,1.57,.08,3.21-.58,4.12-1.85"></path><path class="cls-3" d="M147.98,118.18c13.96-4.44,27.18-12.26,36-23.95,3.17-4.21,5.81-9.78,3.66-14.59-1.87-4.19-6.9-6.22-11.48-5.97-4.58,.25-8.84,2.31-12.96,4.33-14.29-8.06-33.27-6.91-46.47,2.83-8.75,6.45-24,27.69-15.29,38.9,8.3,10.68,36.49,1.65,46.54-1.54Z"></path><path class="cls-3" d="M193.39,329.68c8.1,3.19,17.4,.93,25.13-3.06,7.73-3.99,14.52-9.62,22.18-13.75,4.97-2.68,10.61-4.74,16.17-3.78,8.43,1.45,14.1,9.19,18.85,16.31,16.29,24.41,32.57,48.81,48.86,73.22,1.23,1.85,2.65,3.83,4.8,4.39,2.4,.63,4.83-.74,6.94-2.06,13.39-8.39,26.62-17.03,39.69-25.9,3.42-2.32,7.28-5.79,6.2-9.78-.48-1.75-1.84-3.09-3.15-4.35-25.73-24.61-51.46-49.22-77.19-73.83-9.13-8.73-19.22-17.93-31.77-19.31-9.99-1.1-19.82,3.02-28.49,8.1-8.67,5.08-16.81,11.23-26.17,14.87-7.17,2.78-14.95,3.95-22.62,3.51-5.23-.3-12.38-2.48-16.01,2.8-6.85,9.98,7.49,29.04,16.6,32.62Z"></path><path class="cls-2" d="M376.01,375.54c-.16,0-.32-.08-.41-.22-.15-.23-.1-.54,.13-.69,4.77-3.24,6.79-6.34,6-9.23-.45-1.67-1.82-2.97-3.02-4.12l-43.28-41.4c-.2-.19-.21-.51-.02-.71,.19-.2,.51-.21,.71-.02l43.28,41.4c1.23,1.18,2.76,2.64,3.29,4.58,.91,3.35-1.24,6.82-6.4,10.32-.09,.06-.18,.09-.28,.09Z"></path><path class="cls-2" d="M283.17,337.04c-.16,0-.32-.08-.42-.22-6.41-9.61-18.31-25.93-25.96-27.25-4.55-.78-9.74,.44-15.85,3.73-3.65,1.97-7.17,4.32-10.57,6.6-3.72,2.49-7.56,5.06-11.62,7.16-.24,.12-.55,.03-.67-.21-.13-.25-.03-.55,.21-.67,4-2.07,7.82-4.62,11.52-7.1,3.42-2.29,6.96-4.66,10.65-6.65,6.32-3.41,11.71-4.66,16.5-3.84,8.01,1.38,20.12,17.93,26.62,27.68,.15,.23,.09,.54-.14,.69-.08,.06-.18,.08-.28,.08Z"></path><path class="cls-1" d="M211.32,221.04c5.2,12.06,1.6,25.9-2.06,38.52-15.85,4.51-31.71,9.02-47.56,13.53-1.03-11.36-8.44-20.92-14.37-30.66-5.93-9.74-10.63-21.92-5.89-32.29,13.23-28.96,60.11-11.77,69.89,10.9Z"></path><path class="cls-2" d="M367.17,403.36c-2.19,0-4.39-.65-6.18-1.88-2.7-1.85-4.49-5.03-4.67-8.29-.02-.28,.19-.51,.47-.53,.33-.02,.51,.2,.53,.47,.17,2.96,1.79,5.85,4.24,7.52s5.72,2.16,8.54,1.25c.26-.08,.54,.06,.63,.32,.08,.26-.06,.54-.32,.63-1.04,.33-2.14,.5-3.23,.5Z"></path><path class="cls-2" d="M465.92,424.25c-.82,0-1.63-.1-2.43-.3-3.53-.88-6.45-3.72-7.42-7.23-.07-.27,.08-.54,.35-.62,.27-.08,.54,.08,.62,.35,.88,3.17,3.51,5.73,6.7,6.53,3.19,.79,6.71-.23,8.98-2.6,.19-.2,.51-.21,.71-.02,.2,.19,.21,.51,.02,.71-1.95,2.04-4.73,3.18-7.52,3.18Z"></path><path class="cls-2" d="M129.87,219.41s-.08,0-.12-.02c-.27-.07-.43-.34-.36-.61,5.62-21.68,7.18-43.96,4.63-66.22-.03-.27,.17-.52,.44-.55,.27-.04,.52,.16,.55,.44,2.56,22.38,.99,44.78-4.66,66.59-.06,.23-.26,.37-.48,.37Z"></path><path class="cls-1" d="M148.94,152.45c-2.69-.44-4.96-2.78-5.31-5.49,1.55-.55,3.46,.26,4.14,1.76,0-.89,0-1.83,.41-2.62s1.37-1.38,2.21-1.06c.82,.31,1.14,1.3,1.2,2.17,.13,1.93-.57,3.91-1.89,5.33"></path><path class="cls-2" d="M119.04,105.38c-.46,0-.91,0-1.36-.02-.28,0-.49-.24-.49-.51,0-.28,.28-.48,.51-.49,17.94,.47,35.61-8.26,46.17-22.75,.16-.22,.48-.27,.7-.11,.22,.16,.27,.48,.11,.7-10.48,14.38-27.86,23.18-45.64,23.18Z"></path><path class="cls-4" d="M221.7,247.58c-2.47-2.59-4.5-6.82-2.12-9.48,1.51-1.69,4.21-1.79,6.31-.92s23.67,13.86,33.19,18.04c7.49,3.29,15.03,7.52,20.19,13.7,1.43,1.71-.03,4.28-2.22,3.86-4.75-.9-10.88-1.82-12.22-2.29-6.05-2.09-35.85-15.29-43.12-22.91Z"></path><path class="cls-5" d="M214.25,270.78c-.64-4.53-.91-9.26,.62-13.58s5.23-8.12,9.79-8.55,9.38,3.55,8.81,8.09c7.31-4.71,15.65-7.82,24.26-9.06,3.88-.55,8.37-.52,11.04,2.35,2.24,2.41,2.41,6.25,1.04,9.23-1.37,2.98-4.03,5.2-6.9,6.8-3.98,2.22-9.03,4.05-10.16,8.46-.37,1.46-.23,3.01-.62,4.46-.83,3.05-3.8,4.98-6.7,6.24-7.16,3.13-16.47,4.38-24.05,1.98-7.26-2.3-6.19-9.78-7.12-16.43Z"></path><path class="cls-1" d="M142.57,206c2.58-2.35,6.58-3.52,9.64-1.83,2.45,1.36,3.74,4.24,3.92,7.04s-.58,5.56-1.34,8.25c-8.02,28.51-17.07,57.88-12.92,87.2,.94,6.61,3.22,14,9.31,16.75,7.12,3.22,15.17-1.67,21.12-6.74,15.03-12.79,27.78-28.26,37.47-45.45,6.98,7.01,15.13,12.85,24.02,17.2-6.27,14.61-13.83,28.79-23.91,41.09s-22.8,22.69-37.59,28.53c-7.04,2.78-14.85,4.51-22.18,2.63-6.12-1.57-11.44-5.57-15.43-10.47-6.24-7.68-9.43-17.48-10.56-27.31-1.13-9.83-.31-19.77,.7-29.61,1.61-15.65,3.74-31.25,6.37-46.77,1.97-11.64,1.99-31.93,11.38-40.5Z"></path><path class="cls-2" d="M147.94,243.59c-.27,0-.5-.22-.5-.5-.03-2.91,1.55-5.77,4.02-7.3,2.47-1.53,5.74-1.67,8.33-.34,.25,.13,.34,.43,.22,.67-.13,.25-.43,.34-.67,.22-2.28-1.17-5.17-1.05-7.34,.3-2.18,1.35-3.57,3.88-3.55,6.44,0,.28-.22,.5-.5,.5h0Z"></path><path class="cls-2" d="M213.32,229.81c-.25,0-.46-.18-.5-.44-.86-6.64-3.83-13-8.36-17.93-.19-.2-.17-.52,.03-.71,.2-.19,.52-.17,.71,.03,4.67,5.07,7.73,11.63,8.62,18.48,.04,.27-.16,.52-.43,.56-.02,0-.04,0-.07,0Z"></path><path class="cls-3" d="M220.2,214.71c-.73,3.68-1.38,7.7,.37,11.01,1.69,3.18,5.18,4.9,8.51,6.29,7.16,2.99,14.56,5.4,22.1,7.19,6.42,1.52,14.06,2.29,18.8-2.31,2.82-2.74,3.89-6.76,4.84-10.57,6.83-27.39,13.66-54.78,20.49-82.17,.98-3.93,1.7-8.76-1.35-11.43-2.32-2.02-5.77-1.78-8.83-1.43-9.24,1.08-18.48,2.16-27.72,3.23-4.67,.54-12-.17-15.72,3.26-4.85,4.47-6.04,15.5-7.84,21.6-2.57,8.69-4.95,17.43-7.14,26.22-2.23,8.95-6.52,19.89-6.52,29.12Z"></path><path class="cls-6" d="M224.16,209.35c-.62,3.26-1.18,6.83,.32,9.77,1.44,2.82,4.42,4.35,7.26,5.58,6.11,2.65,12.42,4.79,18.86,6.38,5.48,1.35,12,2.03,16.04-2.05,2.41-2.43,3.32-6,4.13-9.38,5.83-24.31,11.65-48.61,17.48-72.92,.84-3.49,1.45-7.78-1.15-10.14-1.98-1.8-4.93-1.58-7.53-1.27-7.88,.96-15.77,1.92-23.65,2.87-3.98,.48-10.24-.15-13.41,2.89-4.14,3.97-5.15,13.76-6.69,19.17-2.19,7.71-4.22,15.47-6.09,23.27-1.9,7.94-5.56,17.65-5.56,25.84Z"></path><path class="cls-5" d="M284.72,169.92c-3.51-.38-7.58,.32-9.49,3.29-1.79,2.78-.94,6.63,1.11,9.22s5.06,4.21,7.98,5.75c-2.32-.52-4.82-.62-7.03,.28s-4.04,2.97-4.15,5.34,1.89,4.8,4.27,4.69c-4.53,4.69-6.64,11.87-4.48,18.02,2.17,6.15,8.99,10.56,15.36,9.18,3.98-.86,7.28-3.68,9.83-6.85,12.76-15.82,10.53-46.34-13.41-48.92Z"></path><path class="cls-2" d="M302.98,208.49c-.24,0-.45-.17-.49-.42-1.52-9.4-8.99-17.72-18.17-20.24-.27-.07-.42-.35-.35-.61,.07-.27,.35-.42,.62-.35,9.54,2.62,17.31,11.28,18.89,21.05,.04,.27-.14,.53-.41,.57-.03,0-.05,0-.08,0Z"></path></g></svg>