<svg transform="scale(1)" id="_0365_Message_Received_2" xmlns="http://www.w3.org/2000/svg" viewBox="0 0 500 500" class="show_show__wrapper__graphic__5Waiy "><title>React</title><defs><style>.cls-1{fill:#d6b2a4;}.cls-2{fill:#fff;}.cls-3{fill:#3c4368;}.cls-4{fill:#ffde91;}.cls-5{fill:#af93a2;}.cls-6{fill:#292e54;}.cls-7{fill:#e6e7e8;}</style></defs><g id="wind-effects"><path class="cls-7" d="M211.73,147.85c-.12,0-.23-.02-.35-.06-.52-.19-.78-.77-.59-1.28,2.75-7.47,5.59-15.19,10.06-22.04,3.54-5.42,9.66-12.5,18.7-15.45,3.19-1.04,6.55-1.49,9.8-1.93,4.44-.6,8.63-1.16,12.41-3.08,4.54-2.31,7.81-6.22,11.27-10.37,1.68-2.01,3.42-4.09,5.31-5.96,9.53-9.42,23.62-13.65,36.76-11.04,.54,.11,.89,.63,.79,1.18-.11,.54-.64,.89-1.17,.79-12.5-2.48-25.9,1.55-34.96,10.5-1.82,1.8-3.53,3.84-5.18,5.82-3.44,4.12-7,8.37-11.9,10.87-4.08,2.08-8.64,2.69-13.05,3.28-3.16,.43-6.43,.87-9.45,1.85-8.49,2.77-14.28,9.49-17.64,14.65-4.35,6.65-7.15,14.27-9.86,21.63-.15,.4-.53,.65-.94,.65Z"></path><path class="cls-7" d="M294.28,101.58c-.29,0-.58-.12-.77-.37-.35-.43-.29-1.06,.14-1.41,4.36-3.58,10.12-4.56,14.65-5.01,1.23-.12,2.46-.22,3.7-.31,3.7-.28,7.53-.57,11.06-1.68,5.21-1.62,9-4.99,10.13-9.01,.15-.53,.7-.84,1.23-.69,.53,.15,.84,.7,.69,1.23-1.32,4.67-5.6,8.55-11.46,10.38-3.75,1.17-7.69,1.47-11.51,1.76-1.22,.09-2.44,.19-3.65,.31-4.25,.42-9.63,1.33-13.58,4.57-.19,.15-.41,.23-.63,.23Z"></path><g><path class="cls-7" d="M123.52,122.77c-.31,0-.61-.14-.8-.4-.33-.44-.24-1.07,.21-1.4,.96-.71,1.95-1.4,2.95-2.03,.47-.29,1.09-.16,1.38,.31,.29,.47,.16,1.08-.31,1.38-.95,.6-1.9,1.25-2.82,1.94-.18,.13-.39,.2-.6,.2Z"></path><path class="cls-7" d="M89.61,223.25c-.25,0-.51-.1-.7-.29-.39-.39-.4-1.02,0-1.41,1.58-1.6,3.07-3.33,4.44-5.14,.33-.44,.96-.53,1.4-.19,.44,.33,.53,.96,.19,1.4-1.42,1.88-2.98,3.68-4.62,5.34-.2,.2-.45,.3-.71,.3Zm8.35-11.02c-.17,0-.34-.04-.5-.13-.48-.27-.65-.89-.37-1.36,1.13-1.96,2.13-4.02,3-6.1,.21-.51,.8-.75,1.31-.54,.51,.21,.75,.8,.54,1.31-.89,2.16-1.94,4.3-3.11,6.33-.19,.32-.52,.5-.87,.5Zm5.28-12.78c-.09,0-.17-.01-.26-.03-.53-.14-.85-.69-.71-1.22,.59-2.2,1.03-4.44,1.31-6.66,.07-.55,.57-.93,1.12-.87,.55,.07,.93,.57,.87,1.12-.3,2.31-.76,4.64-1.37,6.93-.12,.45-.52,.74-.96,.74Zm1.76-13.74c-.55,0-1-.42-1-.97,0-2.04-.08-4.2-.27-6.86-.04-.55,.38-1.03,.93-1.07,.55-.04,1.03,.38,1.07,.93,.19,2.7,.27,4.91,.27,6.94,0,.55-.45,1.03-1,1.03Zm-.82-13.81c-.52,0-.95-.4-1-.92-.16-2.06-.34-4.5-.41-6.97-.02-.55,.42-1.01,.97-1.03,.51,0,1.01,.42,1.03,.97,.07,2.43,.25,4.83,.41,6.87,.04,.55-.37,1.03-.92,1.08-.03,0-.05,0-.08,0Zm-.27-13.85s-.05,0-.08,0c-.55-.04-.96-.52-.92-1.08l.04-.45c.19-2.18,.54-4.38,1.04-6.54,.13-.54,.67-.87,1.2-.75,.54,.12,.87,.66,.75,1.2-.48,2.07-.82,4.17-1,6.26l-.04,.44c-.04,.52-.48,.92-1,.92Zm3.1-13.46c-.12,0-.24-.02-.36-.07-.51-.2-.77-.78-.57-1.29,.84-2.18,1.86-4.33,3-6.39,.27-.48,.88-.66,1.36-.39,.48,.27,.66,.88,.39,1.36-1.1,1.98-2.07,4.05-2.89,6.14-.15,.4-.53,.64-.93,.64Zm6.72-12.07c-.21,0-.42-.07-.6-.2-.44-.33-.53-.96-.2-1.4,1.42-1.88,2.98-3.68,4.64-5.33,.39-.39,1.02-.39,1.41,0,.39,.39,.39,1.02,0,1.41-1.59,1.59-3.09,3.31-4.45,5.12-.2,.26-.5,.4-.8,.4Z"></path><path class="cls-7" d="M81.57,229.9c-.32,0-.64-.16-.83-.45-.31-.46-.18-1.08,.28-1.39,.95-.63,1.88-1.3,2.79-2,.44-.34,1.06-.26,1.4,.18,.34,.44,.26,1.06-.18,1.4-.94,.73-1.91,1.43-2.9,2.08-.17,.11-.36,.17-.55,.17Z"></path></g><path class="cls-7" d="M342.92,211.12c-.05,0-.11,0-.16-.01-.54-.09-.92-.6-.83-1.15,1.77-10.92,13.61-16.66,23.21-18.27,3.5-.58,7.1-.86,10.58-1.14,6.44-.51,13.11-1.03,19.07-3.5,8.34-3.46,14.72-10.42,20.89-17.15,1.59-1.73,3.23-3.52,4.88-5.23,7.46-7.71,18.94-16.41,31.28-14.11,.54,.1,.9,.62,.8,1.17-.1,.54-.63,.9-1.17,.8-11.47-2.13-22.36,6.19-29.48,13.54-1.63,1.68-3.26,3.46-4.84,5.19-6.32,6.89-12.85,14.02-21.6,17.65-6.26,2.59-13.08,3.13-19.68,3.64-3.44,.27-6.99,.55-10.41,1.12-8.95,1.49-19.97,6.74-21.57,16.61-.08,.49-.5,.84-.99,.84Z"></path><g><path class="cls-7" d="M383.39,261.72c-.11,0-.23-.02-.34-.06-.52-.19-.79-.76-.6-1.28,.39-1.07,.76-2.17,1.1-3.27,.17-.53,.73-.82,1.25-.66,.53,.16,.82,.72,.66,1.25-.35,1.13-.74,2.27-1.14,3.36-.15,.41-.53,.66-.94,.66Z"></path><path class="cls-7" d="M271.53,348.59s-.07,0-.1,0c-.55-.06-.95-.55-.89-1.1,.26-2.47,.53-4.69,.82-6.79,.08-.55,.57-.93,1.13-.85,.55,.08,.93,.58,.85,1.13-.29,2.07-.56,4.27-.81,6.71-.05,.51-.49,.9-.99,.9Zm1.93-13.46c-.06,0-.13,0-.19-.02-.54-.11-.9-.63-.79-1.17,.46-2.33,.98-4.58,1.55-6.69,.14-.53,.69-.85,1.23-.7,.53,.14,.85,.69,.7,1.23-.56,2.07-1.07,4.27-1.52,6.55-.09,.48-.51,.81-.98,.81Zm3.59-13.1c-.12,0-.23-.02-.35-.06-.52-.19-.78-.77-.59-1.28,.44-1.19,.92-2.38,1.42-3.53,.41-.95,.86-1.9,1.32-2.82,.25-.49,.85-.69,1.34-.44,.49,.25,.69,.85,.44,1.34-.45,.89-.88,1.8-1.27,2.72-.48,1.11-.95,2.26-1.37,3.42-.15,.4-.53,.65-.94,.65Zm6.12-12.11c-.19,0-.39-.06-.56-.17-.46-.31-.58-.93-.27-1.39,1.31-1.94,2.73-3.78,4.24-5.48,.37-.41,1-.45,1.41-.08,.41,.37,.45,1,.08,1.41-1.45,1.63-2.82,3.4-4.08,5.26-.19,.29-.51,.44-.83,.44Zm9.04-10.09c-.29,0-.57-.12-.77-.36-.35-.43-.29-1.06,.13-1.41,1.83-1.51,3.75-2.85,5.72-3.97,.48-.27,1.09-.11,1.36,.37,.27,.48,.11,1.09-.37,1.36-1.87,1.06-3.7,2.33-5.44,3.77-.19,.15-.41,.23-.64,.23Zm52.21-5.36c-.55,0-1-.45-1-1,0-.55,.45-1,1-1,2.37,0,4.53-.19,6.59-.56,.54-.1,1.06,.26,1.16,.8,.1,.54-.26,1.06-.8,1.16-2.18,.4-4.45,.59-6.94,.6h0Zm-6.78-.4s-.07,0-.11,0c-2.34-.25-4.73-.61-6.78-.92-.55-.08-.92-.59-.84-1.14,.08-.55,.59-.92,1.14-.84,2.03,.31,4.39,.66,6.7,.91,.55,.06,.95,.55,.89,1.1-.06,.51-.49,.89-.99,.89Zm-33.66-.88c-.42,0-.81-.27-.95-.69-.17-.52,.11-1.09,.63-1.26,1.37-.45,2.77-.82,4.16-1.08,.87-.17,1.77-.3,2.68-.4,.54-.06,1.04,.33,1.11,.88,.06,.55-.33,1.04-.88,1.11-.86,.1-1.71,.23-2.52,.38-1.31,.25-2.62,.59-3.91,1.02-.1,.03-.21,.05-.31,.05Zm20.19-1.01s-.09,0-.13,0c-2.58-.34-4.7-.53-6.68-.62-.55-.02-.98-.49-.96-1.04s.47-.98,1.04-.96c2.04,.09,4.22,.29,6.85,.63,.55,.07,.93,.57,.86,1.12-.07,.5-.5,.87-.99,.87Zm33.53-.2c-.39,0-.76-.23-.92-.62-.21-.51,.03-1.1,.54-1.31,1.99-.82,3.94-1.87,5.81-3.11,.46-.31,1.08-.18,1.39,.28,.31,.46,.18,1.08-.28,1.39-1.98,1.32-4.05,2.42-6.16,3.29-.12,.05-.25,.08-.38,.08Zm11.29-7.44c-.27,0-.53-.11-.73-.31-.38-.4-.36-1.03,.04-1.41,1.56-1.47,3.08-3.12,4.5-4.9,.35-.43,.97-.5,1.41-.16,.43,.34,.5,.97,.16,1.41-1.48,1.86-3.06,3.58-4.69,5.11-.19,.18-.44,.27-.69,.27Zm8.5-10.58c-.18,0-.36-.05-.52-.15-.47-.29-.62-.91-.33-1.38,1.14-1.86,2.22-3.83,3.2-5.88,.24-.5,.83-.71,1.33-.47,.5,.24,.71,.84,.47,1.33-1.01,2.11-2.12,4.15-3.3,6.06-.19,.31-.52,.48-.85,.48Z"></path><path class="cls-7" d="M270.61,358.88s-.05,0-.08,0c-.55-.04-.96-.53-.92-1.08,.09-1.16,.19-2.33,.29-3.49,.05-.55,.53-.95,1.08-.91,.55,.05,.96,.53,.91,1.08-.1,1.16-.19,2.33-.29,3.49-.04,.52-.48,.92-1,.92Z"></path></g><path class="cls-7" d="M301.56,392.46c-.05,0-.1,0-.15-.01-.55-.08-.92-.59-.84-1.14,1.76-11.44,9.38-21.57,19.88-26.43,3.25-1.5,6.71-2.5,10.07-3.46,1.9-.54,3.86-1.11,5.74-1.75,6.26-2.15,10.49-5.01,12.92-8.74,.3-.46,.92-.59,1.38-.29,.46,.3,.59,.92,.29,1.38-2.69,4.12-7.25,7.24-13.95,9.54-1.93,.66-3.92,1.23-5.84,1.78-3.28,.94-6.67,1.91-9.78,3.35-9.75,4.52-17.11,14.3-18.74,24.92-.08,.49-.5,.85-.99,.85Z"></path><path class="cls-7" d="M358.58,337.96c-.19,0-.39-.06-.56-.17-.46-.31-.58-.93-.27-1.39,6.77-10.04,18.88-16.45,31-16.45,.21,0,.41,0,.62,0,.55,0,.99,.47,.98,1.02,0,.55-.49,1.01-1.02,.98-11.64-.2-23.4,5.9-29.92,15.56-.19,.29-.51,.44-.83,.44Z"></path><path class="cls-2" d="M396.29,318.98c-.2,0-.37-.14-.4-.34-.03-.22,.12-.42,.34-.46,4.19-.63,8.16-2.84,10.9-6.07,.14-.17,.4-.19,.57-.05,.17,.14,.19,.4,.05,.57-2.86,3.38-7.01,5.69-11.39,6.35-.02,0-.04,0-.06,0Z"></path></g><g id="letters"><g><path class="cls-4" d="M330.57,120.24c4.35-1.8,8.9-3.58,13.61-3.37,8.85,.39,15.75,7.46,21.67,14.04,2.58,2.87,5.2,5.8,6.74,9.34,1.54,3.54,1.84,7.84-.19,11.13-1.89,3.06-5.37,4.69-8.66,6.15-15.76,7-31.52,14-47.28,20.99-4.21,1.87-8.62,3.77-13.21,3.47-9.06-.6-15.16-9.23-19.9-16.98-2.63-4.3-7.8-10.95-6.03-16.36,1.47-4.5,7.47-6.73,11.27-8.73,13.67-7.21,27.69-13.77,41.97-19.68Z"></path><g><path class="cls-4" d="M342.78,120.15c-3.22,9.17-6.78,18.23-10.68,27.13-1.05,2.4-2.26,4.95-4.53,6.27-3.01,1.74-6.8,.76-10.12-.27-9.57-2.97-19.15-5.94-28.72-8.9"></path><path class="cls-2" d="M323.7,154.91c-2.07,0-4.25-.59-6.38-1.25l-28.72-8.9c-.21-.07-.33-.29-.27-.5,.07-.21,.29-.33,.5-.27l28.72,8.9c3.4,1.06,6.97,1.95,9.8,.31,2.11-1.22,3.27-3.57,4.37-6.08,3.88-8.85,7.47-17.97,10.67-27.1,.07-.21,.3-.32,.51-.25,.21,.07,.32,.3,.25,.51-3.21,9.15-6.81,18.29-10.7,27.16-1.15,2.63-2.38,5.11-4.7,6.45-1.27,.73-2.64,1.02-4.07,1.02Z"></path></g></g><g><path class="cls-1" d="M388.52,41.51c4.24,.28,8.74,1.2,11.69,4.25,3.21,3.3,3.82,8.26,4.28,12.84,.29,2.99,.34,6.57-2.1,8.33-1.6,1.15-3.73,1.08-5.7,.97-8.5-.49-16.99-.99-25.49-1.48-2.64-.15-5.45-.37-7.52-2.01-3-2.38-3.31-6.79-3.02-10.61,.28-3.84,.98-7.83,3.3-10.9,2.67-3.53,7.06-4.61,11.15-3.51,4.6,1.23,8.6,1.8,13.41,2.13Z"></path><g><path class="cls-1" d="M398.35,47.42c-4.09,3.37-8.18,6.73-12.27,10.1-1.04,.85-2.23,1.76-3.57,1.64-1.45-.12-2.51-1.39-3.36-2.57-3.14-4.37-5.91-9-8.26-13.84"></path><path class="cls-2" d="M382.74,59.58c-.09,0-.18,0-.27-.01-1.57-.13-2.69-1.4-3.65-2.74-3.15-4.38-5.94-9.05-8.3-13.9-.1-.2-.01-.44,.19-.54,.2-.1,.44-.01,.54,.19,2.33,4.81,5.1,9.44,8.22,13.78,.86,1.19,1.82,2.3,3.07,2.41,1.17,.1,2.25-.71,3.28-1.55l12.27-10.1c.17-.14,.43-.12,.57,.06,.14,.17,.12,.43-.05,.57l-12.27,10.1c-1.08,.89-2.24,1.75-3.59,1.75Z"></path></g></g><path class="cls-1" d="M187.79,149.93c3.65-7.53,8.48-15.19,16.18-18.47,9.97-4.26,21.33,.08,31.28,4.38,3.56,1.54,7.65,3.77,8.01,7.64,.17,1.81-.57,3.56-1.29,5.23-6.88,15.88-13.75,31.75-20.63,47.63-1.7,3.92-3.47,7.95-6.56,10.9-10.75,10.27-34.22,3.12-38.69-10.74-4.4-13.63,5.98-34.79,11.7-46.57Z"></path><g><path class="cls-1" d="M209.21,133.1c6.67,9.88,11.46,21.03,14.03,32.67,.7,3.18,1.19,6.71-.48,9.51-1.61,2.7-4.77,3.97-7.72,5.04-9.97,3.62-20.03,6.97-30.18,10.06"></path><path class="cls-2" d="M184.87,190.78c-.17,0-.33-.11-.38-.29-.07-.21,.05-.44,.27-.5,10.1-3.07,20.24-6.46,30.16-10.06,3.1-1.13,6.01-2.35,7.51-4.87,1.58-2.66,1.14-6,.43-9.22-2.54-11.51-7.38-22.76-13.97-32.53-.12-.18-.08-.43,.11-.56,.18-.12,.43-.08,.56,.11,6.65,9.85,11.53,21.2,14.09,32.8,.71,3.22,1.21,6.9-.52,9.8-1.64,2.75-4.81,4.08-7.93,5.21-9.93,3.6-20.09,6.99-30.2,10.07-.04,.01-.08,.02-.12,.02Z"></path></g></g><g id="hand-behind"><path class="cls-4" d="M101.37,271.04c-10.31,16.42-15.45,35.18-18.59,54.11-1.1,6.61-1.97,13.37-.77,20.15,1.19,6.78,4.68,13.66,10.89,18.28,10.27,7.63,25.88,7.1,36.16,1.05,10.29-6.05,16.01-16.41,19.17-27.02,3.16-10.6,4.13-21.77,7.04-32.44,2.66-9.75,6.91-19.02,9.62-28.75,3.13-11.28,6-46.57-18.6-41.41-19.74,4.14-35.82,21.56-44.91,36.05Z"></path><path class="cls-1" d="M119.84,369.74c.18-1.05,.25-2.1,.14-3.16-1.05-10.35-24.11-22.01-31.32-9.94-.86,1.45-1.59,2.99-2.23,4.6-1.81,2.63-3.37,5.49-4.84,7.59-9.58,13.7-19.16,27.41-28.74,41.11-2.41,3.44-4.93,7.3-4.45,11.48,.63,5.48,6.06,8.98,11.11,11.22,8.73,3.87,18.06,6.39,27.55,7.45,3.35,.37,7.03,.49,9.78-1.47,2.46-1.75,3.62-4.75,4.65-7.59,5.91-16.36,11.42-32.86,16.53-49.48,1.18-3.84,2.34-7.88,1.83-11.82Z"></path></g><g id="phone"><path class="cls-3" d="M245.84,192.39c-2.37-2.93-6.8-4.2-10.91-5.27-13.51-3.53-72.59-15.28-86.42-17.18-4.2-.58-8.79-1.11-12.09,.7-3.75,2.04-4.65,6.38-5.3,10.34-7.64,46.95-15.21,93.46-22.71,139.53-.97,5.98-1.77,12.61,2.5,17.88,4.59,5.67,13.29,7.65,21.07,9.14,8.47,1.62,16.85,3.23,25.19,4.83,8.32,1.71,16.68,3.44,25.12,5.18,7.76,1.6,16.56,3.09,22.96-.39,5.95-3.24,7.76-9.67,9.15-15.57,10.69-45.44,21.49-91.31,32.38-137.61,.92-3.91,1.74-8.26-.94-11.58Z"></path><path class="cls-7" d="M233.28,203.25c-1.96-2.29-5.58-3.3-8.94-4.17-11.04-2.85-59.33-12.45-70.63-14.04-3.43-.48-7.17-.93-9.86,.43-3.04,1.54-3.74,4.89-4.23,7.94-5.81,36.2-11.57,72.05-17.28,107.57-.74,4.61-1.33,9.73,2.2,13.83,3.79,4.42,10.91,6.03,17.26,7.25,6.92,1.33,13.77,2.64,20.59,3.95,6.8,1.4,13.63,2.8,20.53,4.22,6.34,1.3,13.53,2.54,18.72-.09,4.83-2.45,6.24-7.4,7.32-11.94,8.31-35,16.71-70.33,25.18-106,.71-3.01,1.35-6.37-.87-8.96Z"></path><path class="cls-6" d="M155.55,333.25c-1.71,1.9-2.05,4.91-.8,7.14s4,3.51,6.51,3.04c2.51-.47,4.61-2.67,4.96-5.2,.82-5.87-6.7-9.39-10.67-4.98Z"></path><rect class="cls-5" x="156.45" y="228.61" width="35.43" height="80.23" rx="15.89" ry="15.89" transform="translate(-116.96 402.12) rotate(-81.67)"></rect><g><path class="cls-2" d="M153.27,267.66c-1.11-1.16-2.55-1.72-3.81-2.21-.47-.18-.91-.35-1.32-.55-2.16-1.02-4.22-3.41-4-6.02,.18-2.07,2.1-3.94,4.02-3.91,.92,.01,1.91,.54,2.56,1.39,.59,.76,.82,1.64,.63,2.41-.21,.87,.32,1.75,1.19,1.96,.87,.21,1.75-.32,1.96-1.19,.42-1.73-.03-3.61-1.22-5.16-1.26-1.63-3.16-2.61-5.08-2.64-3.63-.05-6.97,3.1-7.29,6.87-.31,3.66,2.09,7.45,5.84,9.23,.51,.24,1.03,.44,1.52,.64,1.04,.41,2.03,.79,2.65,1.44,1.05,1.09,.93,3.23-.25,4.4-1.21,1.2-3.33,1.47-5.04,.65-1.65-.79-2.96-2.56-3.43-4.61-.2-.87-1.07-1.42-1.94-1.22-.87,.2-1.42,1.07-1.22,1.94,.7,3.04,2.64,5.58,5.19,6.81,.74,.36,1.52,.59,2.31,.71,2.35,.34,4.77-.35,6.4-1.97,2.43-2.4,2.57-6.58,.31-8.94Z"></path><path class="cls-2" d="M167.11,275.02c-1.63,.89-3.31,1.81-5.03,1.94-1.3,.1-2.94-.45-3.42-1.65-.32-.81-.14-1.93,0-2.93l.63-4.05c.05,.02,.11,.05,.16,.06,1.48,.39,2.98,.69,4.49,.91,1.46,.21,2.92,.35,4.39,.41,.89,.03,1.65-.66,1.68-1.55,.04-.89-.66-1.65-1.55-1.68-2.76-.11-5.52-.52-8.19-1.22-.17-.04-.34-.05-.5-.04l1.11-7.2c.25,.04,.5,.08,.75,.12,1.93,.28,3.88,.45,5.83,.5,.89,.02,1.64-.68,1.66-1.58,.02-.89-.69-1.64-1.58-1.66-2.66-.07-5.32-.37-7.93-.9-.86-.18-1.73,.39-1.91,1.26-.07,.33-.03,.66,.09,.95l-2.34,15.18c-.19,1.26-.46,2.99,.18,4.61,.87,2.2,2.97,3.33,5.02,3.63,.57,.08,1.13,.1,1.66,.06,2.42-.18,4.5-1.32,6.34-2.33,.78-.43,1.07-1.41,.64-2.2-.43-.79-1.41-1.07-2.2-.64Z"></path><path class="cls-2" d="M190.51,257.82c-.89-.02-1.63,.69-1.65,1.59-.13,6.04-1.02,12.02-2.66,17.81l-7.48-20.39c-.24-.65-.87-1.08-1.56-1.06-.69,.02-1.3,.47-1.51,1.13-2.44,7.73-3.31,15.83-4.16,23.66-.09,.87,.52,1.65,1.37,1.78,.02,0,.04,0,.06,0,.89,.1,1.69-.55,1.78-1.44,.65-6.03,1.32-12.21,2.71-18.19l7.36,20.05c.23,.64,.85,1.06,1.53,1.06,.68,0,1.29-.43,1.52-1.08,2.67-7.5,4.1-15.33,4.27-23.28,.02-.89-.69-1.63-1.59-1.65Z"></path><path class="cls-2" d="M207.61,263.81c-1.96-2.59-6.07-4.96-9.31-4.27-1.95,.41-3.31,1.86-3.83,4.07-1.04,4.45-1.49,9.18-1.92,13.75-.21,2.2-.42,4.48-.7,6.65-.09,.74,.33,1.45,1.03,1.72,.75,.29,1.54,.49,2.34,.61,3.01,.44,6.23-.32,8.86-2.15,3.02-2.12,5.16-5.58,5.87-9.48,.73-3.99-.13-7.96-2.34-10.89Zm-5.4,17.72c-2.05,1.44-4.67,1.99-6.98,1.52,.21-1.79,.38-3.61,.54-5.38,.42-4.46,.85-9.08,1.85-13.31,.3-1.27,.88-1.54,1.35-1.64,1.79-.38,4.77,1.36,6.06,3.06,1.64,2.17,2.29,5.29,1.73,8.36-.56,3.07-2.22,5.77-4.55,7.41Z"></path></g></g><g id="hand-front"><path class="cls-4" d="M107.36,279.63c3.42-2.44,7.77-4.88,12.31-4.33,3.53,.42,6.14,2.65,7.17,5.15,1.03,2.49,.72,5.22,.2,7.86-2.28,11.44-8.66,22.59-18.32,32,8.16,6.14,15.7,12.85,20.75,20.64,5.05,7.79,7.48,16.78,5.16,25.52-1.07,4.03-3.2,8.03-6.9,11.2-3.7,3.17-9.13,5.42-14.66,5.43-7.32,.01-13.35-3.69-18.08-7.6-11.34-9.37-21.76-22.47-21.19-35.69,.61-14.25,3.98-27.78,13.54-40.74,5.28-7.14,12.02-13.76,20.01-19.44Z"></path><path class="cls-2" d="M129.48,341.45c-.16,0-.32-.08-.42-.23-4.31-6.65-10.86-13.17-20.63-20.52-.12-.09-.19-.22-.2-.37s.05-.29,.15-.39c9.62-9.38,15.91-20.36,18.18-31.74,.5-2.51,.83-5.16-.17-7.58-1.06-2.58-3.72-4.48-6.77-4.84-4.6-.55-9.03,2.16-11.96,4.24-7.86,5.59-14.56,12.09-19.9,19.33-.17,.22-.48,.27-.7,.1-.22-.16-.27-.48-.11-.7,5.41-7.32,12.18-13.9,20.12-19.55,3.07-2.18,7.71-5.01,12.66-4.42,3.4,.41,6.38,2.55,7.58,5.45,1.1,2.66,.76,5.49,.23,8.15-2.28,11.42-8.51,22.42-18.04,31.86,9.61,7.28,16.11,13.78,20.41,20.42,.15,.23,.08,.54-.15,.69-.08,.05-.18,.08-.27,.08Z"></path></g><g id="touching-hand"><path class="cls-4" d="M166.21,365.24c-3.65-7.09-4.82-15.78-1.59-23.07,3.23-7.29,11.44-12.51,19.25-10.89,2.01-6.42,1.01-13.4-.69-19.91-1.7-6.51-4.08-12.89-4.84-19.58-.54-4.77,.16-10.37,4.16-13.01,4.28-2.82,10.09-.82,14.36,2.04,13.93,9.31,21.31,27.47,17.81,43.86,10.16-4.39,22.04-4.62,32.37-.63,4.41,1.7,8.78,4.42,10.65,8.76,1.61,3.74,1.08,8.02,.38,12.04-1.39,7.94-3.35,15.79-5.85,23.45-2.5,7.65-5.71,15.38-11.59,20.87-7.39,6.91-18.22,9.31-28.26,8.05-18.71-2.34-37.48-15.09-46.17-31.97Z"></path><path class="cls-1" d="M212.67,383.54c-3.81,1.52-7.71,3.78-9.29,7.57-1.03,2.48-.91,5.27-.78,7.95,.77,15.34,1.54,30.68,2.31,46.02,.19,3.77,.46,7.79,2.72,10.81,2.99,4,8.52,5.04,13.51,5.13,10.49,.19,21.01-2.53,30.11-7.76,3.87-2.23,7.7-5.2,9-9.47,1.03-3.4,.28-7.05-.52-10.51-3.5-15.09-7.93-29.95-13.26-44.49-1.1-3-1.66-6.58-4.76-7.94-2.76-1.21-7.04-.98-10-.97-6.49,.02-13.01,1.24-19.04,3.66Z"></path><path class="cls-2" d="M236.51,354.16c-.06,0-.11,0-.17-.03-.26-.09-.39-.38-.3-.64,3.77-10.39,1.96-22.85-4.59-31.75-.16-.22-.12-.54,.11-.7,.22-.16,.54-.12,.7,.11,6.85,9.3,8.66,21.82,4.73,32.68-.07,.2-.27,.33-.47,.33Z"></path><path class="cls-2" d="M189.15,293.75c-.42,0-.84-.07-1.26-.22-1.86-.69-2.66-2.67-3.27-4.48-.86-2.56-1.5-5.45,.22-7.46,1.21-1.41,3.37-1.92,5.51-1.31,1.85,.53,3.42,1.75,4.8,2.82,.22,.17,.26,.48,.09,.7-.17,.22-.49,.26-.7,.09-1.38-1.07-2.8-2.17-4.46-2.65-1.45-.42-3.39-.27-4.47,1-1.39,1.63-.8,4.2-.03,6.49,.53,1.59,1.22,3.32,2.67,3.86,1.69,.62,3.52-.64,5.09-1.97,.93-.78,1.98-1.66,2.51-2.8,.46-.98,.49-2.36-.36-3.11-.21-.18-.23-.5-.04-.71,.18-.21,.5-.23,.71-.04,1.22,1.07,1.23,2.97,.61,4.29-.63,1.33-1.77,2.29-2.77,3.13-1.36,1.15-3.07,2.36-4.82,2.36Z"></path></g><g id="paper-plane"><g><path class="cls-4" d="M355.48,236.28c10.23,4.42,20.45,8.84,30.68,13.26-1.02,15.12-2.03,30.24-3.05,45.35,15.88-22.7,30.95-45.97,45.15-69.75-1.27,2.14-14.07,1.48-16.28,1.65-6.35,.5-12.69,1.18-19.01,2.05-12.63,1.74-25.15,4.22-37.49,7.44Z"></path><path class="cls-1" d="M360.57,283.49c22.49-19.36,44.98-38.71,67.47-58.07-1.62,1.4-6.15,1.83-8.24,2.52-3.09,1.01-6.15,2.1-9.18,3.26-5.83,2.24-11.55,4.76-17.11,7.6-4.35,2.22-10.68,4.52-13.39,8.71-3.07,4.73-5.39,10.42-8.15,15.4-3.8,6.86-7.6,13.72-11.4,20.58Z"></path></g></g><g id="paper-plane-2"><g><path class="cls-4" d="M104.65,110.42c7.31,.75,14.62,1.49,21.94,2.24,2.37,9.71,4.74,19.42,7.11,29.13,5.48-17.44,10.32-35.07,14.52-52.86-.37,1.6-8.56,3.73-9.91,4.28-3.9,1.58-7.75,3.27-11.55,5.07-7.6,3.61-14.98,7.66-22.1,12.14Z"></path><path class="cls-1" d="M117.24,139.11c10.3-16.65,20.59-33.3,30.89-49.95-.74,1.2-3.5,2.37-4.68,3.22-1.74,1.25-3.45,2.54-5.13,3.88-3.22,2.57-6.32,5.29-9.25,8.18-2.29,2.26-5.82,4.97-6.69,8.14-.99,3.59-1.32,7.63-2.06,11.31-1.02,5.07-2.05,10.14-3.07,15.22Z"></path></g></g></svg>